<svg width="17" height="24" viewBox="0 0 17 24" fill="none" xmlns="http://www.w3.org/2000/svg">
<path d="M14.9957 1.3239C14.7087 1.10297 14.3931 0.962469 14.0669 0.910438C13.7406 0.858406 13.4101 0.895863 13.0944 1.02067C12.7786 1.14547 12.4837 1.35517 12.2265 1.63778C11.9694 1.92039 11.755 2.27036 11.5957 2.66769L6.95446 14.2239L4.29821 10.5488C4.0676 10.2184 3.79174 9.95493 3.48673 9.77365C3.18172 9.59237 2.85367 9.49696 2.52172 9.49296C2.18977 9.48897 1.86057 9.57649 1.55333 9.75041C1.24609 9.92432 0.966964 10.1812 0.732232 10.5059C0.497501 10.8307 0.311868 11.2169 0.186166 11.642C0.0604641 12.0671 -0.00279015 12.5225 9.43917e-05 12.9818C0.00297893 13.4411 0.0719446 13.8949 0.202967 14.3169C0.333989 14.7389 0.524444 15.1206 0.763219 15.4397L5.76321 22.3575C6.23571 23.013 6.87321 23.3727 7.53071 23.3727L7.87696 23.3381C8.26015 23.2639 8.62566 23.0677 8.94473 22.7649C9.2638 22.4621 9.52772 22.061 9.71571 21.5931L15.9657 6.02801C16.1253 5.63102 16.2268 5.19443 16.2644 4.74317C16.302 4.29191 16.275 3.83481 16.1849 3.39799C16.0948 2.96117 15.9434 2.55318 15.7394 2.1973C15.5354 1.84143 15.2826 1.54465 14.9957 1.3239Z" fill="#149109"/>
</svg>
