<svg width="18" height="7" viewBox="0 0 18 7" fill="none" xmlns="http://www.w3.org/2000/svg">
<path fill-rule="evenodd" clip-rule="evenodd" d="M2.75 6.21875C2.25272 6.21875 1.77581 5.93231 1.42417 5.42245C1.07254 4.91258 0.875 4.22106 0.875 3.5C0.875 2.77894 1.07254 2.08742 1.42417 1.57755C1.77581 1.06769 2.25272 0.78125 2.75 0.78125C3.24728 0.78125 3.72419 1.06769 4.07583 1.57755C4.42746 2.08742 4.625 2.77894 4.625 3.5C4.625 4.22106 4.42746 4.91258 4.07583 5.42245C3.72419 5.93231 3.24728 6.21875 2.75 6.21875ZM9 6.21875C8.50272 6.21875 8.02581 5.93231 7.67417 5.42245C7.32254 4.91258 7.125 4.22106 7.125 3.5C7.125 2.77894 7.32254 2.08742 7.67417 1.57755C8.02581 1.06769 8.50272 0.78125 9 0.78125C9.49728 0.78125 9.97419 1.06769 10.3258 1.57755C10.6775 2.08742 10.875 2.77894 10.875 3.5C10.875 4.22106 10.6775 4.91258 10.3258 5.42245C9.97419 5.93231 9.49728 6.21875 9 6.21875ZM15.25 6.21875C14.7527 6.21875 14.2758 5.93231 13.9242 5.42245C13.5725 4.91258 13.375 4.22106 13.375 3.5C13.375 2.77894 13.5725 2.08742 13.9242 1.57755C14.2758 1.06769 14.7527 0.78125 15.25 0.78125C15.7473 0.78125 16.2242 1.06769 16.5758 1.57755C16.9275 2.08742 17.125 2.77894 17.125 3.5C17.125 4.22106 16.9275 4.91258 16.5758 5.42245C16.2242 5.93231 15.7473 6.21875 15.25 6.21875Z" fill="#4E4E4E"/>
</svg>
