<svg width="16" height="16" viewBox="0 0 16 16" fill="none" xmlns="http://www.w3.org/2000/svg">
<path d="M9.33333 4.25V0H1C0.445833 0 0 0.334375 0 0.75V15.25C0 15.6656 0.445833 16 1 16H15C15.5542 16 16 15.6656 16 15.25V5H10.3333C9.78333 5 9.33333 4.6625 9.33333 4.25ZM12.5188 10.855L8.50125 13.8456C8.22417 14.0522 7.77667 14.0522 7.49958 13.8456L3.48208 10.855C3.05917 10.5403 3.35583 10 3.95083 10H6.66667V7.5C6.66667 7.22375 6.965 7 7.33333 7H8.66667C9.035 7 9.33333 7.22375 9.33333 7.5V10H12.0492C12.6442 10 12.9408 10.5403 12.5188 10.855ZM15.7083 3.28125L11.6292 0.21875C11.4417 0.078125 11.1875 0 10.9208 0H10.6667V4H16V3.80938C16 3.6125 15.8958 3.42188 15.7083 3.28125Z" fill="#4E4E4E"/>
</svg>
