<svg width="15" height="15" viewBox="0 0 15 15" fill="none" xmlns="http://www.w3.org/2000/svg">
<circle cx="7.5" cy="7.5" r="7" fill="#F5F5F5" stroke="#C4C4C4"/>
<path d="M8.1875 5.5C8.73978 5.5 9.1875 5.05229 9.1875 4.5C9.1875 3.94772 8.73978 3.5 8.1875 3.5C7.63522 3.5 7.1875 3.94772 7.1875 4.5C7.1875 5.05229 7.63522 5.5 8.1875 5.5Z" fill="#4E4E4E"/>
<path d="M9.20998 9.55746C9.18236 9.53887 9.1513 9.526 9.11863 9.51958C9.08596 9.51316 9.05233 9.51333 9.01973 9.52009C8.98713 9.52684 8.9562 9.54004 8.92877 9.55891C8.90134 9.57777 8.87795 9.60193 8.85998 9.62996C8.6183 9.98787 8.32224 10.3059 7.98248 10.5725C7.89998 10.635 7.59248 10.8725 7.46248 10.8225C7.37248 10.795 7.42498 10.6175 7.44248 10.5425L7.57498 10.15C7.62998 9.98996 8.58748 7.14996 8.69248 6.82496C8.84748 6.34996 8.77998 5.88246 8.07248 5.99496C7.87998 6.01496 5.92748 6.26746 5.89248 6.26996C5.85965 6.27209 5.82756 6.28067 5.79805 6.29521C5.76853 6.30974 5.74217 6.32995 5.72046 6.35467C5.69876 6.37939 5.68213 6.40815 5.67154 6.4393C5.66095 6.47045 5.6566 6.50338 5.65873 6.53621C5.66086 6.56904 5.66944 6.60113 5.68398 6.63064C5.69851 6.66016 5.71872 6.68652 5.74344 6.70822C5.76817 6.72993 5.79692 6.74655 5.82807 6.75715C5.85922 6.76774 5.89215 6.77209 5.92498 6.76996C5.92498 6.76996 6.67498 6.67246 6.75748 6.66496C6.79974 6.66083 6.84229 6.66902 6.87999 6.68854C6.9177 6.70806 6.94895 6.73807 6.96998 6.77496C7.01528 6.91499 7.00907 7.0666 6.95248 7.20246C6.88748 7.45246 5.85998 10.3475 5.82748 10.515C5.79262 10.6551 5.8023 10.8027 5.85517 10.9371C5.90804 11.0715 6.00147 11.1861 6.12248 11.265C6.34961 11.4163 6.62004 11.4892 6.89248 11.4725C7.15737 11.4692 7.41934 11.4167 7.66498 11.3175C8.28748 11.0675 8.93748 10.4025 9.27998 9.87996C9.30947 9.82687 9.31864 9.76486 9.30575 9.70552C9.29287 9.64617 9.25883 9.59354 9.20998 9.55746Z" fill="#4E4E4E"/>
</svg>
