<svg width="22" height="22" viewBox="0 0 22 22" fill="none" xmlns="http://www.w3.org/2000/svg">
<path d="M8.75 0.5V3.5L7.25 4.25L5 2L2 5L4.25 7.25L3.5 8.75H0.5V13.25H3.5L4.25 14.75L2 17L5 20L7.25 17.75L8.75 18.5V21.5H13.25V18.5L14.75 17.75L17 20L20 17L17.75 14.75L18.5 13.25H21.5V8.75H18.5L17.75 7.25L20 5L17 2L14.75 4.25L13.25 3.5V0.5H8.75Z" stroke="#32B6C4" stroke-linecap="round" stroke-linejoin="round"/>
<path d="M11 14C12.6569 14 14 12.6569 14 11C14 9.34315 12.6569 8 11 8C9.34315 8 8 9.34315 8 11C8 12.6569 9.34315 14 11 14Z" stroke="#32B6C4" stroke-linecap="round" stroke-linejoin="round"/>
</svg>
