<svg width="25" height="25" viewBox="0 0 25 25" fill="none" xmlns="http://www.w3.org/2000/svg">
<path d="M20.6786 11.3415C20.6786 11.8293 20.7857 12.2866 21 12.7134C21.2143 13.1403 21.5119 13.5163 21.8929 13.8415C22.2738 14.1667 22.7143 14.4208 23.2143 14.6037C23.7143 14.7866 24.25 14.8781 24.8214 14.8781V17.7134H0V14.8781C0.571429 14.8781 1.10714 14.7866 1.60714 14.6037C2.10714 14.4208 2.54762 14.1667 2.92857 13.8415C3.30952 13.5163 3.60714 13.1403 3.82143 12.7134C4.03571 12.2866 4.14286 11.8293 4.14286 11.3415V7.10369C4.14286 6.12808 4.35714 5.21344 4.78571 4.35979C5.21429 3.50613 5.80952 2.7541 6.57143 2.10369C7.33333 1.45328 8.20238 0.945152 9.17857 0.579298C10.1548 0.213444 11.2262 0.0305176 12.3929 0.0305176C13.5595 0.0305176 14.631 0.213444 15.6071 0.579298C16.5833 0.945152 17.4643 1.45328 18.25 2.10369C19.0357 2.7541 19.631 3.50613 20.0357 4.35979C20.4405 5.21344 20.6548 6.12808 20.6786 7.10369V11.3415ZM12.3929 21.2195C11.631 21.2195 10.9643 21.0163 10.3929 20.6098C9.82143 20.2033 9.42857 19.7053 9.21428 19.1159H15.6071C15.4167 19.7256 15.0357 20.2236 14.4643 20.6098C13.8929 20.996 13.2024 21.1992 12.3929 21.2195Z" fill="#4E4E4E"/>
</svg>
