<svg width="25" height="25" viewBox="0 0 25 25" fill="none" xmlns="http://www.w3.org/2000/svg">
<g clip-path="url(#clip0)">
<path d="M14.8438 21.0938H21.0937C21.866 21.0938 22.5223 20.9196 23.0672 20.616L14.8438 15.7106V21.0938Z" fill="#2E3192"/>
<path d="M24.8676 18.0508C24.9566 17.6535 25.002 17.2328 25.002 16.7965V14.8434H19.4902L24.866 18.0508" fill="#2E3192"/>
<path d="M0.136765 6.93713C0.0441884 7.35273 -0.0016689 7.77737 4.639e-05 8.20315V10.1563H5.53286L0.136765 6.93713Z" fill="#2E3192"/>
<path d="M10.1566 3.90625H3.90664C3.13984 3.90625 2.48789 4.07813 1.94531 4.37734L10.1566 9.27578V3.90625Z" fill="#2E3192"/>
<path d="M1.9707 20.6352C2.5082 20.9258 3.15156 21.0938 3.90703 21.0938H10.157V15.7516L1.9707 20.6352Z" fill="#2E3192"/>
<path d="M0 14.8438V16.7969C0 17.2465 0.0476563 17.6797 0.141797 18.0871L5.57891 14.8438H0Z" fill="#2E3192"/>
<path d="M23.0918 4.39648C22.5426 4.08477 21.8773 3.90625 21.0937 3.90625H14.8438V9.3168L23.0918 4.39648Z" fill="#2E3192"/>
<path d="M24.9992 10.1563V8.20317C24.9992 7.77583 24.9551 7.36372 24.8695 6.97388L19.5352 10.1563H24.9992Z" fill="#2E3192"/>
<path d="M19.5359 10.1562L24.8703 6.97383C24.6258 5.85508 24.0305 4.92891 23.0918 4.39648L14.8438 9.3168V3.90625H14.0625V10.9375H25V10.1562H19.5359Z" fill="#E6E7E8"/>
<path d="M0 14.0625V14.8438H5.57891L0.141797 18.0871C0.4 19.2023 1.01328 20.118 1.96992 20.6352L10.1562 15.7516V21.0938H10.9375V14.0625H0Z" fill="#E6E7E8"/>
<path d="M25 14.0625H14.0625V21.0938H14.8438V15.7105L23.0672 20.6164C24.0129 20.0898 24.6156 19.1688 24.8656 18.0516L19.4898 14.8438H25V14.0625Z" fill="#E6E7E8"/>
<path d="M10.1562 3.90625V9.27578L1.94492 4.37734C0.995703 4.90078 0.389062 5.82031 0.136328 6.93711L5.53281 10.1562H0V10.9375H10.9375V3.90625H10.1562Z" fill="#E6E7E8"/>
<path d="M14.0625 10.9375V3.90625H10.9375V10.9375H0V14.0625H10.9375V21.0938H14.0625V14.0625H25V10.9375H14.0625Z" fill="#BE1E2D"/>
<path d="M8.56953 10.1562L0.7375 5.48083C0.569141 5.73083 0.433984 6.00583 0.322266 6.2988L6.78594 10.1562H8.56836" fill="#BE1E2D"/>
<path d="M24.6441 18.7852L18.0766 14.8438H16.2578L24.1926 19.6168C24.3766 19.3597 24.5282 19.0809 24.6441 18.7867" fill="#BE1E2D"/>
<path d="M23.7188 4.84021L14.832 10.1562L16.6363 10.1574L24.3047 5.56638C24.1336 5.25505 23.9531 5.05427 23.7188 4.84021Z" fill="#BE1E2D"/>
<path d="M0.708984 19.4824C0.8847 19.75 1.09616 19.9924 1.3375 20.2027L10.1816 14.8438H8.39922L0.708984 19.4824Z" fill="#BE1E2D"/>
</g>
<defs>
<clipPath id="clip0">
<rect width="25" height="25" fill="white"/>
</clipPath>
</defs>
</svg>
