<svg width="22" height="22" viewBox="0 0 22 22" fill="none" xmlns="http://www.w3.org/2000/svg">
<path d="M20.9929 10.8358L11.422 1.18895C11.3531 1.1193 11.2712 1.06404 11.1811 1.02634C11.091 0.988644 10.9944 0.969238 10.8969 0.969238C10.7993 0.969238 10.7027 0.988644 10.6126 1.02634C10.5225 1.06404 10.4407 1.1193 10.3717 1.18895L0.80085 10.8358C0.522018 11.1171 0.364014 11.4991 0.364014 11.8975C0.364014 12.7249 1.03089 13.3975 1.85111 13.3975H2.85956V20.2811C2.85956 20.696 3.19183 21.0311 3.60311 21.0311H9.40977V15.7811H12.0122V21.0311H18.1906C18.6019 21.0311 18.9342 20.696 18.9342 20.2811V13.3975H19.9426C20.3376 13.3975 20.7164 13.2405 20.9952 12.9569C21.5738 12.371 21.5738 11.4218 20.9929 10.8358Z" fill="#4E4E4E"/>
</svg>
