<svg width="16" height="16" viewBox="0 0 16 16" fill="none" xmlns="http://www.w3.org/2000/svg">
<path d="M15.7001 3.24183L12.7788 0.300417C12.5858 0.108011 12.3245 0 12.0522 0C11.7799 0 11.5187 0.108011 11.3256 0.300417L0.969226 10.6602L0.0236625 14.7482C-0.00895629 14.8977 -0.0078381 15.0525 0.0269353 15.2015C0.0617087 15.3504 0.129259 15.4897 0.224651 15.6092C0.320043 15.7286 0.440868 15.8252 0.578299 15.8919C0.715729 15.9586 0.866293 15.9937 1.01899 15.9946C1.09014 16.0018 1.16184 16.0018 1.23299 15.9946L5.35863 15.0474L15.7001 4.69758C15.8922 4.5042 16 4.2425 16 3.9697C16 3.69691 15.8922 3.43521 15.7001 3.24183ZM4.86097 14.15L0.99411 14.9626L1.87498 11.1637L9.62362 3.43128L12.6096 6.42254L4.86097 14.15ZM13.2765 5.69966L10.2905 2.70839L12.0224 0.983423L14.9586 3.97469L13.2765 5.69966Z" fill="#4E4E4E"/>
</svg>
