<svg width="21" height="16" viewBox="0 0 21 16" fill="none" xmlns="http://www.w3.org/2000/svg">
<path d="M9.00289 4.05379V0.999787C9.00284 0.802037 8.94417 0.608738 8.83429 0.444328C8.7244 0.279918 8.56824 0.151779 8.38554 0.076109C8.20284 0.000438951 8.00181 -0.0193641 7.80785 0.0192035C7.6139 0.057771 7.43574 0.152977 7.29589 0.292787L0.295887 7.29279C0.202941 7.38557 0.129203 7.49578 0.0788925 7.61709C0.0285817 7.73841 0.00268555 7.86845 0.00268555 7.99979C0.00268555 8.13112 0.0285817 8.26117 0.0788925 8.38248C0.129203 8.5038 0.202941 8.614 0.295887 8.70679L7.29589 15.7068C7.43555 15.8471 7.61375 15.9427 7.80787 15.9816C8.00198 16.0204 8.20326 16.0007 8.38616 15.925C8.56906 15.8492 8.72533 15.7208 8.83513 15.5561C8.94493 15.3914 9.00332 15.1978 9.00289 14.9998V11.9038C9.28689 11.8838 9.56789 11.8748 9.84589 11.8748C15.2719 11.8748 18.0849 15.4468 18.2079 15.6048C18.334 15.7715 18.5093 15.8944 18.709 15.9559C18.9088 16.0175 19.1228 16.0146 19.3209 15.9478C19.5196 15.8812 19.6923 15.7538 19.8146 15.5837C19.937 15.4136 20.0029 15.2093 20.0029 14.9998C20.0029 5.87579 11.9169 4.31879 9.00289 4.05379ZM9.84589 9.87479C9.19889 9.87479 8.53389 9.91979 7.87089 10.0078C7.63061 10.04 7.41019 10.1583 7.25056 10.3407C7.09092 10.5232 7.00292 10.7574 7.00289 10.9998V12.5858L2.41689 7.99979L7.00289 3.41379V4.99979C7.00289 5.55179 7.47389 5.99979 8.02489 5.99979C8.93489 5.99979 16.1389 6.20079 17.7039 12.4248C16.0499 11.2068 13.4229 9.87479 9.84589 9.87479Z" fill="white"/>
</svg>
