<svg width="15" height="15" viewBox="0 0 15 15" fill="none" xmlns="http://www.w3.org/2000/svg">
<path d="M7.52348 9.31479L4.54673 12.9073V1.69629C4.54673 1.6217 4.5171 1.55016 4.46435 1.49742C4.41161 1.44467 4.34007 1.41504 4.26548 1.41504C4.19089 1.41504 4.11935 1.44467 4.0666 1.49742C4.01386 1.55016 3.98423 1.6217 3.98423 1.69629V12.8915L1.00748 9.31441C0.983865 9.286 0.954886 9.26251 0.922196 9.2453C0.889506 9.22808 0.853746 9.21747 0.816957 9.21408C0.780167 9.21068 0.743069 9.21457 0.707781 9.22551C0.672493 9.23645 0.639705 9.25424 0.61129 9.27785C0.582876 9.30147 0.55939 9.33044 0.542175 9.36313C0.524959 9.39582 0.514351 9.43158 0.510956 9.46837C0.507561 9.50516 0.511445 9.54226 0.522387 9.57755C0.533329 9.61284 0.551115 9.64562 0.574728 9.67404L4.0566 13.8579C4.08299 13.8897 4.11606 13.9153 4.15346 13.9329C4.19085 13.9504 4.23166 13.9595 4.27298 13.9595H4.27335C4.35698 13.9595 4.4361 13.922 4.48973 13.8579L7.95698 9.67404C8.00462 9.61655 8.02747 9.5425 8.02051 9.46816C8.01355 9.39383 7.97734 9.3253 7.91985 9.27766C7.86237 9.23002 7.78831 9.20717 7.71398 9.21413C7.63964 9.2211 7.57112 9.2573 7.52348 9.31479Z" fill="#32B6C4"/>
<path d="M14.4253 5.32554L10.9438 1.14166C10.9174 1.10996 10.8844 1.08443 10.8471 1.06687C10.8098 1.04931 10.7691 1.04015 10.7278 1.04004H10.7274C10.6438 1.04004 10.5643 1.07754 10.5114 1.14166L7.04381 5.32554C6.99689 5.38305 6.97459 5.45678 6.9818 5.53066C6.989 5.60453 7.02512 5.67257 7.08228 5.71992C7.13943 5.76728 7.21299 5.79013 7.28692 5.78347C7.36085 5.77682 7.42915 5.74121 7.47694 5.68441L10.4537 2.09229V13.3033C10.4537 13.3779 10.4833 13.4494 10.5361 13.5022C10.5888 13.5549 10.6603 13.5845 10.7349 13.5845C10.8095 13.5845 10.8811 13.5549 10.9338 13.5022C10.9866 13.4494 11.0162 13.3779 11.0162 13.3033V2.10766L13.9929 5.68479C14.0164 5.71336 14.0453 5.73699 14.0779 5.75432C14.1105 5.77166 14.1463 5.78234 14.1831 5.78576C14.2199 5.78918 14.257 5.78526 14.2923 5.77424C14.3275 5.76321 14.3603 5.7453 14.3886 5.72154C14.4459 5.67389 14.482 5.60541 14.4889 5.53115C14.4958 5.45689 14.4729 5.38293 14.4253 5.32554Z" fill="#32B6C4"/>
</svg>
